# xmcd
#
# Track frame offsets: 
#        150
#        11487
#        38487
#        46990
#        63120
#        72135
#        87277
#        110005
#        127407
#        139807
#        158275
#
# Disc length: 2362 seconds
#
# Revision: 0
# Processed by: cddbd v1.5.2PL0 Copyright (c) Steve Scherf et al.
# Submitted via: ExactAudioCopy v0.99pb5
#
DISCID=8a09380b
DTITLE=Werwolf - Ewige Narben
DYEAR=1993
DGENRE=RAC
TTITLE0=Intro
TTITLE1=Ewige Narben
TTITLE2=Sex nur mit dir
TTITLE3=Wahnsinn
TTITLE4=Werwolf
TTITLE5=Mächtiger Mann
TTITLE6=F.C.Bulldog
TTITLE7=D.A.S.
TTITLE8=Nicht mehr mit uns
TTITLE9=Wir danken dir
TTITLE10=Komm...
EXTD=
EXTT0=
EXTT1=
EXTT2=
EXTT3=
EXTT4=
EXTT5=
EXTT6=
EXTT7=
EXTT8=
EXTT9=
EXTT10=
PLAYORDER=
